# xmcd CD database file
#
# Track frame offsets:
#	150
#	11891
#	25861
#	37213
#	54749
#	67660
#	78046
#	95220
#	106235
#	117001
#	140181
#	148997
#
# Disc length: 2126 seconds
#
# Revision: 1
# Processed by: cddbd v1.5.2PL0 Copyright (c) Steve Scherf et al.
# Submitted via: CDex 1.51
#
DISCID=aa084c0c
DTITLE=Various Artist - Songs Made More Famous By Oh, Brother, Where Art Thou
DYEAR=2001
DGENRE=Country
TTITLE0=Stanley Bothers - I'm a Man of Constant Sorrow
TTITLE1=Sandy Posey - Down to The River to Play
TTITLE2=Phipps Family - Keep On The Sunny Side
TTITLE3=Stones River - Walk That Lonesome Valley
TTITLE4=Stanley Bothers - Oh Death
TTITLE5=Stones River - Old Time Religion
TTITLE6=Sandy Posey - Didn't Leave Nobody But The Baby
TTITLE7=Stones River - Big Rock Candy Mountian
TTITLE8=Carl Story - Angel Band
TTITLE9=Sandy Posey - Carry Me Back to Old Virginia
TTITLE10=Nashville Dulcimers - Keep On The Sunny Side
TTITLE11=Stones River - Give Me The Roses While I Live
EXTD=YEAR: 2001
EXTT0=
EXTT1=
EXTT2=
EXTT3=
EXTT4=
EXTT5=
EXTT6=
EXTT7=
EXTT8=
EXTT9=
EXTT10=
EXTT11=
PLAYORDER=
